<?xml version="1.0" encoding="utf-8"?>
<!-- Designed by Vexels.com - 2016 All Rights Reserved - https://vexels.com/terms-and-conditions/  -->

<svg version="1.0" id="Capa_1" xmlns="http://www.w3.org/2000/svg" xmlns:xlink="http://www.w3.org/1999/xlink" x="0px" y="0px"
	 width="1200px" height="1200px" viewBox="0 0 1200 1200" enable-background="new 0 0 1200 1200" xml:space="preserve">
<g>
	<path d="M1167.571,675.02l-21.054-0.706v-49.352l6.044-6.519c2.788-3.013,4.321-6.921,4.321-11.022v-87.821
		c0-4.655-2.001-9.085-5.487-12.161c-3.473-3.055-8.094-4.516-12.746-3.919l-68.881,8.689l-1.574-0.563
		c-2.267-0.819-4.689-1.127-7.122-0.883l-53.839,5.341l-2.321-2.329l-393.46-393.457c-6.122-6.118-16.799-6.123-22.923,0
		L193.606,515.257l-34.661-1.157l-1.361-0.686c-2.035-1.021-4.228-1.592-6.524-1.697l-35.783-1.654
		c-17.263-0.8-25.666-1.198-41.925-2.072l-40.363-2.139c-4.113,0-8.184,1.619-11.168,4.442c-3.209,3.047-5.053,7.334-5.053,11.765
		v82.658c0,3.861,1.384,7.606,3.896,10.541l7.707,8.99l0.267,2.053c9.187,70.246,14.644,110.336,25.396,186.514l4.977,35.209
		c1.186,8.429,8.792,14.651,17.438,13.883l87.399-7.385c5.31-0.438,10.055-3.441,12.718-8.035l3.422-5.907l5.965,3.321
		c15.633,8.691,31.044,10.517,41.22,10.517c1.793,0,3.606-0.054,5.471-0.163c8.689-0.516,17.224-2.316,25.356-5.354l1.236-0.461
		l1.32,0.027l1.046-0.015l39.198-1.759c9.868-0.448,27.336-1.095,49.793-1.836l3.012-0.103l234.925,234.938
		c6.124,6.114,16.801,6.114,22.923-0.007l235.114-235.107l3.022,0.107c18.103,0.651,28.136,1.06,47.608,1.918l1.567,0.083
		c8.355,0.41,51.296,2.524,69.226,3.561l14.226,0.819c22.824,1.371,36.732,2.293,55.138,3.655l18.488,1.45
		c27.926,2.181,41.727,3.351,68.426,5.975l41.152,4.056c4.78,0.507,9.087-1.042,12.478-4.116c3.391-3.067,5.328-7.443,5.328-12.012
		V691.218C1183.227,682.436,1176.349,675.317,1167.571,675.02z M1167.026,700.678v138.607v10.788l-10.738-1.066l-30.429-2.993
		c-26.809-2.632-40.678-3.806-68.757-6.001l-18.448-1.452c-18.595-1.374-32.59-2.297-55.446-3.672l-14.297-0.824
		c-19.837-1.148-70.321-3.617-70.785-3.643c-20.89-0.923-30.953-1.33-51.263-2.054l-6.774-0.24l-240.098,240.095l-239.894-239.9
		c-25.064,0.813-47.692,1.618-60.031,2.18l-28.971,1.297l-10.215,0.458v-2.371c-9.098,4.784-18.959,7.579-29.215,8.19
		c-1.511,0.085-3.009,0.131-4.493,0.131c-15.022,0-40.785-4.81-59.513-33.776l-0.686,4.556l-3.278,21.721l-1.156,7.652l-7.71,0.633
		l-44.345,3.669l-26.188,2.291l-9.241,0.805l-1.296-9.179l-3.679-26.037c-10.975-77.797-16.457-118.072-26.261-193.179l-8.487-9.898
		l-2.355-2.751v-3.617v-68.729v-10.312l10.303,0.553l29.207,1.565c16.305,0.872,24.733,1.276,42.044,2.076l26.459,1.225l9.325,0.429
		v2.116c17.244,0.592,48.183,1.606,48.183,1.606l1.598,0.053l399.896-399.907l401.211,401.212l50.742-5.03l10.745-1.068v2.551
		l66.99-8.452l10.996-1.388v11.089v72.893v3.84l-2.604,2.813c0,0-4.699,5.079-7.76,8.376v71.374l27.264,0.917l9.451,0.318V700.678z"
		/>
	<path d="M1168.039,661.139l-7.629-0.256v-30.476l2.342-2.524c5.173-5.579,8.025-12.851,8.025-20.463v-87.821
		c0-8.637-3.717-16.867-10.197-22.583c-6.447-5.677-15.093-8.357-23.678-7.278l-65.671,8.288c-3.707-1.095-7.549-1.479-11.513-1.091
		l-47.309,4.695L621.274,110.496c-5.685-5.69-13.244-8.818-21.282-8.818s-15.596,3.127-21.284,8.818L188.042,501.168l-25.689-0.851
		c-3.365-1.472-6.941-2.306-10.651-2.478l-35.781-1.656c-17.221-0.796-25.602-1.193-41.825-2.066l-39.511-2.117
		c-8.305-0.412-16.312,2.524-22.317,8.211c-5.966,5.657-9.387,13.621-9.387,21.845v82.658c0,7.178,2.566,14.124,7.234,19.576
		l5.02,5.861c9.03,69.037,14.491,109.116,25.144,184.601l4.972,35.212c2.086,14.765,14.872,25.9,29.74,25.9
		c0.893,0,1.794-0.043,2.664-0.12l87.346-7.383c7.575-0.621,14.55-4.08,19.612-9.537c16.321,7.755,31.917,9.484,42.56,9.484
		c2.056,0,4.135-0.065,6.287-0.186c9.661-0.575,19.145-2.519,28.212-5.776c0.188,0,0.371-0.007,0.559-0.017l39.193-1.76
		c9.396-0.429,25.688-1.031,46.621-1.73l230.663,230.674c5.689,5.682,13.247,8.809,21.284,8.809s15.597-3.128,21.282-8.809
		l230.838-230.837c16.211,0.586,26.153,0.995,44.425,1.803l1.534,0.077c8.352,0.413,51.213,2.524,69.119,3.565l14.209,0.813
		c22.737,1.365,36.597,2.284,54.899,3.636l18.462,1.451c27.821,2.171,41.57,3.334,68.149,5.947l41.122,4.052
		c1.015,0.11,2.028,0.157,3.041,0.157c7.45,0,14.608-2.772,20.155-7.801c6.287-5.688,9.893-13.818,9.893-22.303V691.218
		C1197.12,674.901,1184.347,661.69,1168.039,661.139z M1183.227,850.074c0,4.569-1.937,8.945-5.328,12.012
		c-3.392,3.074-7.698,4.623-12.478,4.116l-41.152-4.056c-26.699-2.624-40.5-3.794-68.426-5.975l-18.488-1.45
		c-18.407-1.362-32.314-2.284-55.138-3.655l-14.226-0.819c-17.93-1.037-60.871-3.151-69.226-3.561l-1.567-0.083
		c-19.472-0.858-29.504-1.267-47.608-1.918l-3.022-0.107l-235.114,235.107c-6.122,6.121-16.799,6.121-22.923,0.007L353.605,844.753
		l-3.012,0.103c-22.458,0.741-39.926,1.388-49.793,1.836l-39.198,1.759l-1.046,0.015l-1.32-0.027l-1.236,0.461
		c-8.132,3.038-16.666,4.838-25.356,5.354c-1.865,0.11-3.678,0.163-5.471,0.163c-10.176,0-25.586-1.826-41.22-10.517l-5.965-3.321
		l-3.422,5.907c-2.664,4.594-7.408,7.597-12.718,8.035l-87.399,7.385c-8.646,0.769-16.251-5.453-17.438-13.883l-4.977-35.209
		c-10.752-76.178-16.208-116.268-25.396-186.514l-0.267-2.053l-7.707-8.99c-2.512-2.935-3.896-6.68-3.896-10.541v-82.658
		c0-4.431,1.845-8.718,5.053-11.765c2.985-2.823,7.055-4.442,11.168-4.442l40.363,2.139c16.259,0.874,24.662,1.271,41.925,2.072
		l35.783,1.654c2.295,0.105,4.488,0.676,6.524,1.697l1.361,0.686l34.661,1.157L588.53,120.317c6.124-6.123,16.801-6.118,22.923,0
		l393.46,393.457l2.321,2.329l53.839-5.341c2.433-0.244,4.855,0.064,7.122,0.883l1.574,0.563l68.881-8.689
		c4.651-0.597,9.273,0.864,12.746,3.919c3.486,3.076,5.487,7.506,5.487,12.161v87.821c0,4.101-1.533,8.009-4.321,11.022
		l-6.044,6.519v49.352l21.054,0.706c8.779,0.297,15.656,7.416,15.656,16.198V850.074z"/>
	<path d="M810.682,827.099v-1.859c-6.239,1.122-11.833,1.429-16.127,1.429h-0.009l-2.717-0.036
		c-22.507-0.614-33.922-0.864-56.784-1.301l-19.801-0.375l-21.095-0.272c-22.108-0.276-33.777-0.42-57.271-0.532
		c-1.036,0.003-104.115,0.115-142.294,0.691l-23.773,0.361c-18.124,0.308-67.972,1.732-110.712,3.12l239.894,239.9l240.098-240.095
		l-19.971-0.699L810.682,827.099z M600.023,1031.478l-191.61-192.165c45.983-1.204,136.324-2.849,219.124-2.849
		c57.219,0,120.363,0.777,164.292,2.306C725.542,905.773,631.31,1000.158,600.023,1031.478z"/>
	<path d="M207.668,534.566c7.194-2.5,14.81-3.763,22.79-3.763c1.44,0,2.888,0.046,4.355,0.136
		c7.771,0.454,18.356,2.353,29.529,8.163l6.456,0.085l28.11,0.403c18.163,0.254,28.366,0.326,45.322,0.439l33.974,0.249l9.712,0.077
		v2.628l16.456,0.012c7.088,0,24.861-0.065,40.703-0.133c-15.007-23.713-24.814-50.792-27.662-79.371
		c-6.577-66.129,24.039-130.733,77.788-168.95c65.093-46.318,156.165-42.597,218.601,6.376
		c28.067,22.034,50.965,53.541,61.258,87.953c6.577,20.23,8.409,40.645,8.409,61.401c0,17.164-4.405,37.088-6.684,44.947
		c-4.86,16.962-12.178,32.935-21.475,47.548c10.928-0.147,18.05-0.276,19.422-0.36l0.171-0.016h0.177l21.958-0.595h0.133h0.13
		c22.762,0,42.156,8.998,56.075,26.018c2.393,2.922,4.561,6.067,6.496,9.446c0.532-2.626,1.07-5.296,1.614-8.018l4.124-20.52
		l1.448-7.208l7.328-0.604l72.201-6.015l4.795-0.403l2.878,3.152l46.945-4.656L599.993,131.775L200.097,531.682l7.455,0.248
		L207.668,534.566z M846.615,472.11l6.74-13.662l6.745,13.662l15.074,2.191l-10.908,10.634l2.574,15.016l-13.485-7.09l-13.481,7.09
		l2.573-15.016l-10.908-10.634L846.615,472.11z M339.9,472.11l6.74-13.662l6.745,13.662l15.074,2.191l-10.911,10.634l2.577,15.016
		l-13.485-7.09l-13.484,7.09l2.576-15.016l-10.911-10.634L339.9,472.11z"/>
	<path d="M760.315,449.654c0-18.144-1.601-35.978-7.349-53.658c-8.993-30.067-29-57.591-53.525-76.848
		c-54.556-42.796-134.138-46.048-191.018-5.574c-46.964,33.395-73.716,89.846-67.967,147.628
		c2.986,30.008,14.69,58.172,32.623,81.531c0.662-0.003,1.076-0.007,1.115-0.007l9.829-0.046v2.727l9.363-0.214
		c-4.915-5.235-9.479-10.811-13.576-16.715c-16.86-24.343-26.016-53.627-26.016-83.239c0-7.877,0.664-15.763,1.955-23.519
		c9.728,52.453,46.114,97.608,95.573,117.775c-1.736,1.676-3.597,3.203-5.411,4.795c6.032,0.045,11.285,0.081,16.459,0.108
		c14.384-14.751,25.91-32.274,33.649-51.569c3.353-8.379,5.953-17.055,7.794-25.91c0.943-4.441,1.678-8.936,2.249-13.439
		c0.259-2.262,0.494-4.546,0.682-6.827c2.873-1.241,5.839-2.352,8.753-3.401c8.272-2.976,16.821-5.161,25.498-6.576
		c1.715-0.29,3.43-0.49,5.162-0.768c0.387,2.567,0.734,5.157,1.011,7.779c0.609,5.796,0.906,11.642,0.791,17.462
		c-0.357,29.655-9.83,58.767-26.807,83.051c3.698-0.036,7.431-0.072,11.199-0.11c20.249-31.888,29.067-70.701,23.125-109.087
		c10.414-0.669,20.636-0.108,30.957,1.212c2.007,0.235,3.997,0.588,5.988,0.958c3.981,0.724,4.035,0.805,4.552,4.785
		c0.624,4.611,1.05,9.242,1.214,13.897c0.776,18.038-1.842,36.178-7.59,53.294c-4.117,12.197-9.839,23.818-16.938,34.54
		c3.731-0.036,7.444-0.076,11.106-0.112c18.421-30.598,26.45-67.143,21.533-103.128c8.029,2.323,15.937,5.328,23.47,8.984
		c3.481,1.679,6.858,3.483,10.152,5.426c2.03,1.156,3.964,2.375,5.932,3.623c-0.143,1.727-0.347,3.455-0.552,5.174
		c-3.873,30.15-17.134,57.808-36.938,79.672c6.44-0.068,12.627-0.14,18.445-0.204c12.441-15.981,21.974-34.313,27.671-54.197
		C756.465,482.063,760.315,464.648,760.315,449.654z M711.915,350.784c3.167,3.766,15.642,21.316,21.188,33.38
		c-54.759-27.32-121.701-20.023-169.42,18.312c-5.05-7.584-9.399-15.597-12.99-23.972c-1.531-3.582-2.947-7.21-4.181-10.917
		c-1.254-3.734,5.932-7.172,8.932-9.252c15.388-10.631,32.782-18.296,50.948-22.469
		C641.991,327.659,679.985,333.084,711.915,350.784z M538.752,314.816c0.168-4.296,7.185-5.524,10.965-6.946
		c16.877-6.232,34.806-9.251,52.81-8.961c32.7,0.525,64.507,12.22,89.894,32.785c-43.245-15.287-91.924-10.801-131.648,12.143
		c-6.099,3.502-12.109,7.544-17.725,11.91c-2.119-8.626-3.519-17.458-4.071-26.312C538.661,324.584,538.589,319.691,538.752,314.816
		z M563.647,526.065c-1.695,2.089-3.409,4.124-5.235,6.096c-3.001-1.131-5.988-2.37-8.916-3.684
		c-5.527-2.524-10.907-5.378-16.068-8.562c-17.134-10.492-32.022-24.523-43.591-40.941c-11.464-16.298-19.645-34.874-23.902-54.364
		c-1.859-8.682-5.837-22.81-2.577-31.31c4.401-11.562,10.28-22.564,17.448-32.675c3.295,52.321,33.27,100.92,78.7,127.174
		c-5.328-3.078-39.8-22.97,0.051,0.027c0.885,0.511,0.781,0.453,0.042,0.023c6.99,4.029,14.309,7.466,21.831,10.378
		C576.543,508.131,570.611,517.483,563.647,526.065z M595.06,454.857c-0.662,4.293-1.49,8.578-2.522,12.806
		c-0.992,4.175-2.193,8.316-3.593,12.409c-0.793,2.356-1.657,4.718-2.56,7.041c-1.216,2.993-0.295,2.893-3.282,1.709
		c-56.267-22.605-93.841-79.234-93.123-139.865c0.241-0.249,23.327-22.487,37.296-30.624c-0.425,33.419,10.039,66.447,29.405,93.624
		c9.361,13.105,20.747,24.727,33.646,34.349c1.177,0.914,2.357,1.755,3.558,2.602C596.534,450.765,595.522,451.864,595.06,454.857z
		 M649.747,424.323c-17.081,1.762-33.811,6.361-49.453,13.556c-3.594,1.66-6.651-2.477-9.488-4.903
		c-2.858-2.433-5.638-4.991-8.33-7.641c-2.616-2.602-5.122-5.309-7.535-8.113c-2.361-2.695-7.353-5.888-3.928-8.566
		c25.41-19.954,57.174-31.246,89.531-31.707c15.607-0.237,31.34,2.054,46.282,6.742c7.63,2.373,14.999,5.359,22.131,8.917
		c3.315,1.651,6.519,3.425,9.674,5.27c0.883,1.16,1.528,4.446,1.915,5.751c0.832,2.883,0.143,0.506,0,0.009
		c4.036,13.62,6.005,27.724,6.005,41.947C717.499,428.318,683.354,420.83,649.747,424.323z"/>
	<path d="M740.548,403.638c0-0.004,0-0.009,0-0.009C740.505,403.477,740.517,403.528,740.548,403.638z"/>
	<path d="M1130.312,689.983v-71.374c3.061-3.297,7.76-8.376,7.76-8.376l2.604-2.813v-3.84v-72.893v-11.089l-10.996,1.388
		l-66.99,8.452v-2.551l-10.745,1.068l-50.742,5.03l-46.945,4.656l-2.878-3.152l-4.795,0.403l-72.201,6.015l-7.328,0.604
		l-1.448,7.208l-4.124,20.52c-0.543,2.722-1.082,5.391-1.614,8.018c-1.936-3.379-4.103-6.524-6.496-9.446
		c-13.919-17.02-33.312-26.018-56.075-26.018h-0.13h-0.133l-21.958,0.595h-0.177l-0.171,0.016c-1.372,0.084-8.494,0.212-19.422,0.36
		c-7.781,0.109-17.471,0.23-28.503,0.358c-5.817,0.064-12.005,0.136-18.445,0.204c-7.559,0.079-15.47,0.167-23.597,0.249
		c-3.662,0.036-7.375,0.076-11.106,0.112c-13.64,0.14-27.634,0.275-41.308,0.402c-3.768,0.038-7.5,0.074-11.199,0.11
		c-10.658,0.098-20.994,0.198-30.643,0.28c-11.366-0.01-19.671-0.032-28.139-0.082c-5.174-0.028-10.427-0.064-16.459-0.108
		c-2.914-0.028-5.989-0.049-9.354-0.077l-0.155-0.006l-0.146,0.012l-42.87,0.975l-9.363,0.214v-2.727l-9.829,0.046
		c-0.039,0-0.454,0.004-1.115,0.007c-3.522,0.019-15.105,0.074-28.005,0.128c-15.841,0.068-33.614,0.133-40.703,0.133l-16.456-0.012
		v-2.628l-9.712-0.077l-33.974-0.249c-16.956-0.113-27.16-0.185-45.322-0.439l-28.11-0.403l-6.456-0.085
		c-11.173-5.81-21.758-7.71-29.529-8.163c-1.468-0.09-2.915-0.136-4.355-0.136c-7.98,0-15.596,1.262-22.79,3.763l-0.115-2.636
		l-7.455-0.248l-1.598-0.053c0,0-30.939-1.014-48.183-1.606v-2.116l-9.325-0.429l-26.459-1.225
		c-17.311-0.8-25.738-1.203-42.044-2.076l-29.207-1.565l-10.303-0.553v10.312v68.729v3.617l2.355,2.751l8.487,9.898
		c9.805,75.107,15.287,115.382,26.261,193.179l3.679,26.037l1.296,9.179l9.241-0.805l26.188-2.291l44.345-3.669l7.71-0.633
		l1.156-7.652l3.278-21.721l0.686-4.556c18.728,28.966,44.491,33.776,59.513,33.776c1.484,0,2.982-0.046,4.493-0.131
		c10.257-0.611,20.117-3.405,29.215-8.19v2.371l10.215-0.458l28.971-1.297c12.34-0.562,34.968-1.367,60.031-2.18
		c42.74-1.388,92.588-2.813,110.712-3.12l23.773-0.361c38.179-0.575,141.258-0.688,142.294-0.691
		c23.493,0.111,35.163,0.256,57.271,0.532l21.095,0.272l19.801,0.375c22.862,0.438,34.277,0.688,56.784,1.301l2.717,0.036h0.009
		c4.295,0,9.888-0.307,16.127-1.429v1.859l9.437,0.331l19.971,0.699l6.774,0.24c20.309,0.724,30.372,1.131,51.263,2.054
		c0.464,0.026,50.948,2.495,70.785,3.643l14.297,0.824c22.856,1.375,36.852,2.298,55.446,3.672l18.448,1.452
		c28.078,2.194,41.948,3.369,68.757,6.001l30.429,2.993l10.738,1.066v-10.788V700.678v-9.46l-9.451-0.318L1130.312,689.983z
		 M1157.245,839.285l-30.429-3.003c-26.274-2.582-40.09-3.766-68.944-6.018l-18.495-1.452c-19.346-1.433-33.626-2.369-55.602-3.691
		l-14.296-0.822c-20.12-1.163-70.918-3.643-70.918-3.643c-20.191-0.897-30.484-1.32-51.355-2.067l-26.742-0.936v-5.075
		c-9.768,3.473-19.132,4.315-25.775,4.315l-2.594-0.038c-22.446-0.615-33.814-0.862-56.859-1.302l-19.872-0.378l-21.091-0.273
		c-22.726-0.285-34.224-0.417-57.405-0.533c0,0-103.74,0.116-142.432,0.686l-23.792,0.368
		c-29.129,0.494-137.623,3.802-171.014,5.307l-28.967,1.299v-10.966c-13.659,12.532-28.052,16.564-39.572,17.251
		c-1.314,0.077-2.623,0.113-3.918,0.113c-15.128,0-42.948-5.787-59.276-44.582c-1.848-4.373-3.334-9.38-4.829-14.404
		c-1.791,11.844-3.667,24.202-5.767,38.089l-3.279,21.718l-44.391,3.668l-26.187,2.288l-3.68-26.029
		c-10.911-77.361-16.457-118.05-26.625-195.964l-10.381-12.114v-68.729l29.207,1.569c16.335,0.878,24.772,1.28,42.117,2.085
		l26.455,1.221v2.217c10.086,0.384,57.641,1.945,57.641,1.945l0.373,8.428c11.053-7.108,22.397-9.241,31.908-9.241
		c1.252,0,2.503,0.033,3.787,0.111c10.78,0.628,23.93,4.182,36.417,14.132v-5.861l28.115,0.397
		c18.187,0.249,28.408,0.325,45.388,0.442l33.971,0.244v2.695l26.237,0.019c14.127,0,69.873-0.267,69.873-0.267v2.898l62.235-1.41
		c22.013,0.176,32.645,0.253,54.111,0.272c0,0,176.57-1.588,184.753-2.099l21.956-0.597c19.727,0,36.497,7.76,48.509,22.447
		c8.988,10.962,14.202,25.647,15.919,43.435c2.854-14.001,5.897-29.109,9.345-46.283l4.127-20.516l72.189-6.018l2.947,3.232
		l102.575-10.184v2.85l77.99-9.843v72.893c0,0-9.989,10.777-10.371,11.198v84.66l36.713,1.239V839.285z"/>
	<path d="M160.739,606.621c4.348-3.78,6.509-5.672,10.904-9.397c0-11.573,0-17.382,0-28.958c-18.008-0.6-26.804-0.88-43.939-1.566
		c0,11.21,0,16.785,0,28c4.36,4.341,6.564,6.532,10.969,10.811c-5.748,39.066-8.613,58.797-14.264,98.602
		c-1.836,16.026-2.733,24.011-4.549,40.139c-1.817-16.66-2.714-24.991-4.514-41.741c-5.187-39.385-7.768-59.273-12.87-99.399
		c4.11-3.763,6.171-5.621,10.34-9.326c0-12.038,0-18.033,0-30.07c-17.436-0.795-25.928-1.217-42.337-2.099
		c0,11.713,0,17.555,0,29.263c3.603,4.23,5.427,6.345,9.078,10.508c10.85,83.246,16.38,123.989,27.657,203.91
		c8.941-0.781,13.478-1.166,22.68-1.908C142.007,723.08,148.18,683.774,160.739,606.621z"/>
	<path d="M283.889,681.322c0-34.719-4.595-61.864-13.641-81.693c-9.023-19.811-21.689-30.316-37.626-31.246
		c-16.279-0.961-28.809,8.746-37.902,29.718c-9.073,20.977-13.523,50.448-13.523,87.978c0,38.357,4.022,67.491,12.241,87.014
		c8.205,19.484,20.096,28.497,35.986,27.542c15.895-0.955,29.075-12.489,39.197-34.328
		C278.752,744.477,283.889,716.317,283.889,681.322z M249.545,741.937c-4.482,12.227-10.956,18.511-19.331,18.837
		c-7.955,0.299-13.782-5.656-17.605-18.033c-3.819-12.4-5.7-31.921-5.7-58.34c0-27.714,2.086-47.507,6.246-59.234
		c4.174-11.747,10.372-17.381,18.66-17.058c8.081,0.308,14.194,6.459,18.284,18.416c4.107,11.993,6.187,30.771,6.187,56.29
		C256.286,710.093,254.019,729.751,249.545,741.937z"/>
	<path d="M367.859,721.118c-1.547,13.601-2.339,20.402-3.89,34.04c-10.703,0.244-15.987,0.345-26.517,0.607
		c0-57.113,0-85.611,0-142.726c5.166-3.533,7.733-5.329,12.939-8.824c0-10.636,0.017-15.991,0.017-26.627
		c-21.155-0.153-31.561-0.214-52.021-0.497c0,10.238,0,15.321,0,25.552c5.03,3.886,7.565,5.829,12.642,9.664
		c0,58.302,0,87.415,0,145.711c-5.077,3.229-7.612,4.929-12.642,8.195c0,10.733,0,16.086,0,26.819
		c33.542-1.509,50.816-2.138,86.174-3.229c0-27.544-0.016-41.295-0.016-68.842C377.832,721.04,374.507,721.04,367.859,721.118z"/>
	<path d="M460.792,753.436c-11.233,0.153-16.805,0.248-27.892,0.42c0-55.549,0-83.285,0-138.829
		c5.435-3.479,8.15-5.254,13.621-8.714c0-10.365,0-15.562,0-25.939c-22.247,0.117-33.23,0.136-54.877,0.117
		c0,9.913,0,14.842,0,24.755c5.326,3.725,7.98,5.598,13.348,9.279c0,56.526,0,84.76,0,141.281c-5.368,3.074-8.022,4.698-13.348,7.81
		c0,10.389,0,15.591,0,25.984c35.486-1.049,53.675-1.511,90.693-2.109c0-26.95,0-40.391,0-67.35
		c-7.032,0.041-10.534,0.081-17.519,0.117C463.205,733.534,462.406,740.145,460.792,753.436z"/>
	<path d="M575.209,728.547c-1.761,9.625-2.636,14.42-4.395,24.051c-13.521,0.036-20.256,0.072-33.636,0.15
		c0-22.442,0-33.639,0-56.078c15.272-0.023,22.937,0,38.409,0c0-12.783,0-19.259,0-32.038c-15.472-0.023-23.137-0.023-38.409-0.042
		c0-19.403,0-29.089,0-48.492c12.241,0.071,18.393,0.071,30.768,0.107c1.911,8.715,2.876,13.016,4.799,21.724
		c7.115,0.019,10.667,0.074,17.822,0.074c0-22.401,0-33.617,0-56.024c-21.547-0.022-32.216-0.095-53.389-0.266
		c-17.396,0.438-26.039,0.688-43.153,1.031c0,9.684,0,14.496,0,24.184c5.579,3.59,8.386,5.424,13.999,8.98
		c0,55.413,0,83.068,0,138.481c-5.614,2.985-8.421,4.508-13.999,7.506c0,10.184,0,15.267,0,25.441
		c38.841-0.565,58.657-0.743,98.852-0.779c0-23.204,0-34.8,0-58.01C585.79,728.547,582.255,728.523,575.209,728.547z"/>
	<path d="M676.767,583.087c0,9.669,0,14.481,0,24.144c4.142,2.542,6.213,3.785,10.341,6.326
		c-7.948,25.25-11.924,37.822-19.928,62.955c-7.542-25.25-11.341-37.804-18.946-62.973c3.877-2.47,5.826-3.766,9.684-6.232
		c0-10.238,0-15.321,0-25.559c-21.427,0.766-32.235,1.131-54.038,1.729c0,9.621,0,14.398,0,24.019
		c5.005,3.141,7.486,4.722,12.471,7.854c14.05,40.133,21.041,60.131,34.94,100.38c0,15.333-0.019,23.057-0.019,38.39
		c-5.698,2.886-8.549,4.397-14.271,7.282c0,10.106,0,15.149,0,25.254c23.265,0.114,34.813,0.244,57.609,0.53
		c0-10.161-0.017-15.245-0.017-25.4c-5.608-2.986-8.425-4.511-14.057-7.47c0-15.511,0.007-23.231,0.007-38.74
		c13.588-40.151,20.343-60.288,33.761-100.799c5.12-3.23,7.698-4.831,12.799-8.081c0-10.314,0-15.476,0-25.79
		C707.176,581.867,697.089,582.283,676.767,583.087z"/>
	<path d="M834.799,630.233c0-17.269-3.487-30.185-10.446-38.663c-6.984-8.54-16.432-12.607-28.443-12.268
		c-7.506,0.212-11.282,0.35-18.855,0.539c-16.373,1.012-24.625,1.511-41.298,2.405c0,9.739,0,14.556,0,24.301
		c5.498,3.456,8.241,5.228,13.716,8.71c0,55.929,0,83.855,0,139.784c-6.079,3.057-10.668,5.462-13.716,7.198
		c0,10.221,0,15.375,0,25.595c23.141,0.442,34.558,0.686,57.094,1.3c31.023,0.844,45.94-19.424,45.94-61.046
		c0-23.857-25.083-46.133-25.119-48.177C813.674,679.913,834.799,655.752,834.799,630.233z M777.056,614.838
		c6.131-0.097,9.176-0.159,15.261-0.269c4.548-0.081,8.215,1.773,10.982,5.559c2.808,3.838,4.165,9.491,4.165,17.052
		c0,18.53-6.609,27.839-19.977,27.892c-4.165,0.017-6.247,0.053-10.43,0.075C777.056,645.011,777.056,634.964,777.056,614.838z
		 M806.127,747.363c-3.249,4.702-7.984,6.99-14.188,6.878c-5.943-0.12-8.905-0.137-14.882-0.231c0-23.116,0-34.689,0-57.801
		c4.183,0.019,6.265,0.019,10.43,0.036c8.124,0.017,14.039,2.615,17.839,7.714c3.78,5.065,5.697,13.035,5.697,23.746
		C811.023,736.094,809.402,742.628,806.127,747.363z"/>
	<path d="M924.901,574.378c-10.561,0.896-15.88,1.394-26.647,2.252c-14.793,73.599-22.261,109.776-37.416,181.277
		c-5.027,2.649-7.587,4.011-12.646,6.665c0,10.527,0,15.801,0,26.323c20.964,0.746,31.307,1.161,51.594,2.061
		c0-10.735-0.02-16.085-0.02-26.819c-5.238-3.148-7.851-4.735-13.141-7.85c1.698-9.014,2.53-13.543,4.221-22.579
		c14.991,0.302,22.404,0.502,37.015,0.836c1.588,9.405,2.364,14.063,3.937,23.505c-4.916,2.703-7.369,4.103-12.337,6.773
		c0,10.834,0,16.217,0,27.052c21.066,1.013,31.394,1.586,51.608,2.749c0-11.097,0-16.636,0-27.739
		c-4.448-3.129-6.683-4.675-11.172-7.773C946.098,685.185,939.091,647.841,924.901,574.378z M896.746,702.876
		c5.322-29.149,7.984-43.764,13.259-73.238c4.991,29.23,7.489,43.913,12.435,73.467
		C912.257,703.029,907.107,702.951,896.746,702.876z"/>
	<path d="M1036.897,762.108c-9.131-0.438-13.755-0.647-23.116-1.07c0-61.293,0-91.895,0-153.197
		c4.582-4.124,6.878-6.262,11.407-10.463c0-11.558,0-17.328,0-28.882c-18.424,1.949-27.865,2.879-47.124,4.659
		c0,10.603-0.022,15.912-0.022,26.51c4.74,3.655,7.109,5.481,11.784,9.173c0,61.128,0,91.651,0,152.779
		c-4.675,3.034-7.044,4.581-11.784,7.578c0,11.135,0.022,16.679,0.022,27.816c31.59,1.871,46.857,2.88,76.114,5.118
		c0-30.771,0-46.131,0-76.904c-5.553-0.155-8.371-0.209-14.015-0.344C1038.849,739.821,1038.202,747.226,1036.897,762.108z"/>
	<path d="M1113.839,766.308c-8.296-0.513-12.496-0.763-21.034-1.255c0-64.528,0-96.734,0-161.258
		c4.185-4.374,6.246-6.625,10.373-11.084c0-12.164,0-18.242,0-30.404c-16.79,2.216-25.415,3.263-43.151,5.309
		c0,11.136,0,16.675,0,27.814c4.366,3.785,6.544,5.747,10.85,9.592c0,64.219-0.019,96.272-0.019,160.49
		c-4.308,3.151-6.466,4.774-10.831,7.884c0,11.698,0,17.54,0,29.23c29.081,2.266,43.018,3.479,69.496,6.073
		c0-32.493,0-48.729,0-81.222c-5.027-0.172-7.587-0.244-12.707-0.416C1115.623,742.813,1115.043,750.627,1113.839,766.308z"/>
	<polygon points="509.082,858.566 504.033,858.566 504.033,905.703 526.728,905.703 526.728,901.06 509.082,901.06 	"/>
	<polygon points="539.725,883.818 554.341,883.818 554.341,879.169 539.725,879.169 539.725,863.212 555.619,863.212 
		555.619,858.566 534.674,858.566 534.674,905.703 555.956,905.703 555.956,901.06 539.725,901.06 	"/>
	<path d="M588.146,905.703h5.32l-14.209-47.877h-2.761l-14.211,47.877h4.982l3.76-13.194h13.293L588.146,905.703z M572.369,888.131
		l3.964-14.507l1.304-7.247h0.137l1.241,7.112l4.097,14.643H572.369z"/>
	<path d="M612.39,885.26l8.691,1.322v13.615c-1.527,1.112-3.458,1.673-5.791,1.673c-3.73,0-6.657-1.609-8.79-4.821
		c-2.134-3.206-3.198-8.179-3.198-14.914c0-3.681,0.335-6.776,1.01-9.297c0.675-2.514,1.583-4.539,2.727-6.09
		c1.143-1.55,2.435-2.664,3.874-3.331c1.433-0.679,2.935-1.016,4.511-1.016c1.612,0,3.039,0.136,4.276,0.409
		c1.234,0.267,2.3,0.651,3.198,1.146l1.214-4.584c-1.036-0.493-2.28-0.884-3.74-1.175c-1.46-0.293-3.265-0.445-5.42-0.445
		s-4.254,0.454-6.297,1.349c-2.046,0.899-3.863,2.324-5.458,4.277c-1.593,1.954-2.86,4.468-3.805,7.544
		c-0.942,3.074-1.41,6.813-1.41,11.213c0,4.27,0.39,7.922,1.174,10.979c0.787,3.054,1.9,5.581,3.333,7.576
		c1.44,1.999,3.178,3.469,5.224,4.409c2.038,0.945,4.318,1.416,6.834,1.416c2.021,0,4.017-0.302,5.991-0.91
		c1.979-0.604,3.594-1.492,4.851-2.658v-20.742H612.39V885.26z"/>
	<path d="M648.892,906.31c4.088,0,7.242-1.265,9.463-3.802c2.223-2.538,3.333-6.658,3.333-12.358v-31.583h-4.85v30.035
		c0,4.578-0.572,7.906-1.718,9.969c-1.143,2.062-3.198,3.094-6.158,3.094c-1.576,0-2.899-0.219-3.978-0.672
		c-1.075-0.448-1.975-1.19-2.693-2.224c-0.718-1.032-1.237-2.381-1.547-4.039c-0.315-1.658-0.471-3.702-0.471-6.128v-30.035h-5.053
		v32.659c0,5.118,1.089,8.916,3.268,11.386C640.664,905.079,644.134,906.31,648.892,906.31z"/>
	<polygon points="694.285,901.06 678.054,901.06 678.054,883.818 692.668,883.818 692.668,879.169 678.054,879.169 678.054,863.212 
		693.949,863.212 693.949,858.566 673.001,858.566 673.001,905.703 694.285,905.703 	"/>
	<polygon points="606.74,940.595 600,926.932 593.257,940.595 578.181,942.784 589.088,953.419 586.515,968.432 600,961.342 
		613.484,968.432 610.907,953.419 621.819,942.784 	"/>
</g>
</svg>
